<svg width="100px" height="100px" viewBox="0 0 100 100" version="1.1" xmlns="http://www.w3.org/2000/svg" xmlns:xlink="http://www.w3.org/1999/xlink">
    <!-- Generator: Sketch 50.2 (55047) - http://www.bohemiancoding.com/sketch -->
    <desc>Created with Sketch.</desc>
    <defs></defs>
    <g id="Page-1" stroke="none" stroke-width="1" fill="none" fill-rule="evenodd">
        <g id="Artboard" fill="#000000">
            <path d="M25.7299242,83.0482504 C32.5249427,88.0467927 40.9175921,91 50,91 C72.6436747,91 91,72.6436747 91,50 C91,40.9175921 88.0467927,32.5249427 83.0482504,25.7299242 L25.7299242,83.0482504 Z M17.8171158,75.4047096 L75.4047096,17.8171158 C68.4198282,12.2958255 59.5948048,9 50,9 C27.3563253,9 9,27.3563253 9,50 C9,59.5948048 12.2958255,68.4198282 17.8171158,75.4047096 Z M50,100 C22.3857625,100 0,77.6142375 0,50 C0,22.3857625 22.3857625,0 50,0 C77.6142375,0 100,22.3857625 100,50 C100,77.6142375 77.6142375,100 50,100 Z" id="Combined-Shape"></path>
        </g>
    </g>
</svg>